<?xml version="1.0" standalone="no"?>
<!DOCTYPE svg PUBLIC "-//W3C//DTD SVG 20010904//EN"
 "http://www.w3.org/TR/2001/REC-SVG-20010904/DTD/svg10.dtd">
<svg version="1.0" xmlns="http://www.w3.org/2000/svg"
 width="404.000000pt" height="404.000000pt" viewBox="0 0 404.000000 404.000000"
 preserveAspectRatio="xMidYMid meet">
<metadata>
Created by potrace 1.14, written by Peter Selinger 2001-2017
</metadata>
<g transform="translate(0.000000,404.000000) scale(0.100000,-0.100000)"
fill="#000000" stroke="none">
<path d="M2020 3811 c-41 -7 -93 -18 -115 -23 l-40 -10 60 -30 c33 -17 95 -43
139 -58 l79 -27 -79 -14 c-44 -7 -87 -13 -96 -13 -9 0 -15 -3 -13 -6 4 -7
-119 -40 -149 -40 -9 0 -16 5 -16 12 0 6 -6 4 -14 -7 -8 -12 -20 -16 -34 -12
-12 3 -25 1 -28 -4 -3 -5 -10 -9 -15 -9 -6 0 -7 6 -3 13 6 8 3 8 -9 -1 -9 -8
-22 -10 -28 -6 -8 4 -9 3 -5 -4 6 -10 -16 -18 -26 -10 -2 1 -13 -4 -26 -11
-20 -11 -27 -10 -42 4 -12 11 -20 13 -25 5 -3 -6 -3 -9 2 -8 4 2 9 -1 10 -7 1
-5 -6 -10 -17 -9 -10 0 -17 -2 -15 -6 2 -3 -27 -16 -63 -29 -37 -14 -76 -30
-88 -38 -11 -7 -24 -10 -27 -6 -4 3 -7 0 -7 -7 0 -7 -3 -10 -6 -7 -4 4 -19 -2
-34 -13 -15 -11 -30 -17 -34 -13 -3 3 -6 1 -6 -6 0 -8 -6 -11 -16 -7 -8 3 -13
2 -10 -3 6 -9 -22 -26 -36 -23 -5 1 -8 -3 -8 -10 0 -6 -3 -9 -6 -6 -3 3 -17
-5 -31 -18 -14 -13 -29 -21 -34 -18 -5 3 -9 1 -9 -4 0 -14 -91 -82 -102 -76
-4 3 -7 2 -6 -3 3 -10 -48 -64 -54 -57 -3 2 -11 -7 -18 -21 -7 -14 -17 -25
-22 -25 -5 0 -16 -7 -25 -16 -9 -8 -23 -12 -31 -9 -9 3 -13 3 -9 -1 3 -4 -28
-24 -69 -46 -134 -69 -255 -157 -348 -252 -99 -102 -203 -235 -212 -273 -16
-62 64 -192 159 -257 31 -22 57 -43 57 -48 0 -4 6 -7 13 -6 9 2 11 -13 8 -57
-2 -33 -4 -79 -4 -102 -1 -23 -3 -40 -6 -38 -3 2 -6 -8 -6 -21 0 -13 2 -24 5
-24 3 0 6 -11 6 -25 1 -16 -2 -22 -10 -18 -7 5 -7 2 1 -8 6 -8 10 -24 9 -34
-2 -11 0 -30 5 -42 8 -23 -11 -49 -26 -35 -5 4 -5 1 -1 -6 6 -10 11 -11 23 0
12 10 14 9 12 -7 -1 -11 3 -46 10 -78 7 -32 10 -65 7 -73 -4 -10 -2 -12 6 -8
8 5 9 2 5 -9 -3 -10 -2 -17 3 -17 6 0 10 -12 10 -26 0 -14 5 -34 10 -44 6 -10
11 -30 12 -44 1 -15 5 -26 9 -26 7 0 34 -80 32 -97 0 -7 3 -11 7 -8 7 5 24
-31 22 -45 0 -3 6 -12 14 -21 8 -9 16 -26 17 -38 1 -11 5 -21 9 -21 4 0 14
-13 23 -30 9 -16 12 -30 9 -30 -4 0 2 -8 12 -18 32 -28 75 -102 68 -114 -4 -6
-3 -8 4 -4 16 10 60 -53 57 -83 -4 -35 -14 -101 -19 -127 -2 -12 -7 -45 -11
-74 -4 -29 -8 -61 -10 -72 -4 -21 -6 -21 102 -19 l81 1 0 -52 c0 -95 13 -287
21 -305 1 -1 17 3 37 9 48 13 48 13 209 46 l140 29 14 -22 c8 -12 26 -30 40
-38 67 -40 497 -52 536 -16 6 6 4 25 -6 54 l-17 45 60 -5 c33 -3 64 -7 69 -11
5 -3 9 -1 9 4 0 5 11 7 25 4 14 -2 25 -8 25 -13 0 -5 7 -6 15 -3 8 4 17 -1 21
-10 3 -9 14 -16 24 -16 10 0 21 -6 24 -12 3 -9 9 -8 20 6 14 18 18 17 124 -16
l110 -35 8 56 c4 31 6 65 5 75 -2 14 2 17 15 12 15 -6 15 -4 3 11 -12 15 -12
16 3 10 9 -3 18 -2 20 3 2 5 12 11 23 13 11 2 28 7 38 12 10 4 24 2 35 -6 15
-13 16 -12 4 2 -11 15 -8 18 19 28 17 6 36 8 42 4 6 -3 7 -1 3 5 -5 8 0 12 13
12 12 0 21 5 21 10 0 6 9 10 19 10 11 0 23 5 26 11 4 6 14 8 23 4 9 -3 13 -3
9 1 -9 9 73 65 85 58 4 -3 8 0 8 6 0 6 4 9 9 6 5 -3 11 1 15 9 3 8 12 15 20
15 8 0 16 3 18 8 7 17 61 51 71 45 5 -3 7 -1 4 4 -9 14 60 66 74 58 6 -4 8
-14 4 -24 -5 -13 -4 -14 6 -3 10 9 10 15 1 24 -15 15 -16 32 -2 23 6 -3 10 1
10 9 0 9 4 16 8 16 5 0 19 10 32 23 14 12 28 21 33 19 5 -1 6 2 3 7 -3 5 16
32 43 60 27 28 47 51 44 51 -4 0 2 9 12 20 17 19 19 19 39 3 21 -18 21 -18 2
4 -15 19 -16 25 -6 38 7 8 17 12 23 8 6 -4 8 0 4 11 -5 11 2 25 20 42 14 13
23 24 19 24 -4 0 1 13 10 29 10 17 21 28 26 25 4 -3 5 2 2 10 -3 9 -1 16 5 16
6 0 10 6 9 13 -2 6 2 11 8 10 6 -1 10 8 10 20 -1 12 4 21 11 20 7 -2 10 3 7
11 -10 25 15 58 39 52 20 -5 21 -4 5 8 -10 7 -18 17 -18 21 0 4 8 14 18 22 9
8 11 11 4 8 -10 -5 -11 -3 -4 11 21 40 35 80 39 109 2 17 8 31 13 33 5 2 6 10
3 19 -4 9 -2 14 3 10 6 -3 9 7 8 24 -1 16 1 29 4 29 4 0 8 14 8 31 1 17 7 35
15 40 11 7 11 9 1 9 -8 0 -12 6 -9 13 2 6 10 11 17 9 10 -2 11 0 3 10 -6 7 -8
31 -5 53 3 22 5 84 6 137 1 54 5 98 10 98 5 0 3 7 -4 15 -10 12 -10 15 1 15
11 0 11 2 -1 10 -13 8 -12 11 5 25 20 15 20 15 0 8 l-20 -6 20 24 c12 14 14
19 4 11 -21 -16 -26 -4 -25 65 1 29 -2 54 -6 55 -6 3 -19 63 -22 103 0 11 -4
22 -7 25 -3 3 -9 17 -13 32 -5 22 -3 26 9 22 8 -4 15 -1 15 6 0 6 -4 9 -8 6
-15 -9 -32 10 -34 37 -1 15 -6 27 -11 27 -4 0 -5 5 -2 10 3 6 1 10 -6 10 -7 0
-10 3 -6 6 3 4 -1 20 -9 36 -8 16 -12 34 -8 40 4 6 3 8 -4 4 -10 -6 -39 59
-34 77 1 4 -2 7 -8 7 -5 0 -14 10 -21 21 -8 15 -8 19 0 15 6 -4 11 -2 11 3 0
6 -7 11 -16 11 -8 0 -12 5 -9 10 3 6 1 10 -4 10 -6 0 -11 7 -11 15 0 8 -4 15
-10 15 -5 0 -10 7 -10 15 0 8 -4 15 -10 15 -5 0 -10 9 -10 19 0 11 -3 21 -8
23 -14 6 -135 162 -135 174 0 7 -6 10 -14 7 -12 -5 -18 8 -14 29 0 5 -2 7 -7
5 -8 -2 -21 9 -106 88 -27 25 -52 45 -56 45 -26 0 -53 71 -36 98 5 8 3 12 -6
10 -7 -2 -13 6 -13 16 0 11 8 20 18 22 31 4 33 15 7 36 -44 35 -83 70 -144
127 l-59 56 2 59 c2 52 1 58 -12 48 -8 -7 -20 -26 -27 -42 -15 -36 -23 -38
-38 -6 -13 29 -83 86 -139 115 -23 11 -45 21 -48 21 -3 0 4 -18 15 -40 11 -22
18 -40 15 -40 -3 0 -28 11 -55 25 -122 62 -292 79 -470 46z"/>
<path d="M1265 3480 c-3 -6 1 -7 9 -4 18 7 21 14 7 14 -6 0 -13 -4 -16 -10z"/>
<path d="M1275 3450 c-4 -6 -11 -7 -17 -4 -7 4 -8 2 -4 -5 6 -9 11 -9 22 0 14
11 18 19 10 19 -3 0 -8 -5 -11 -10z"/>
<path d="M1126 3358 c3 -5 10 -6 15 -3 13 9 11 12 -6 12 -8 0 -12 -4 -9 -9z"/>
<path d="M3006 3282 c-3 -5 1 -9 9 -9 8 0 12 4 9 9 -3 4 -7 8 -9 8 -2 0 -6 -4
-9 -8z"/>
<path d="M950 3256 c0 -2 8 -10 18 -17 15 -13 16 -12 3 4 -13 16 -21 21 -21
13z"/>
<path d="M3117 3213 c-10 -9 -9 -23 1 -23 5 0 9 7 9 15 0 17 -1 18 -10 8z"/>
<path d="M855 3140 c-3 -5 -1 -10 4 -10 6 0 11 5 11 10 0 6 -2 10 -4 10 -3 0
-8 -4 -11 -10z"/>
<path d="M3269 3037 c6 -8 7 -18 3 -22 -4 -5 -1 -5 6 -1 10 6 10 11 1 22 -6 8
-14 14 -16 14 -3 0 0 -6 6 -13z"/>
<path d="M3449 2763 c-13 -16 -12 -17 4 -4 16 13 21 21 13 21 -2 0 -10 -8 -17
-17z"/>
<path d="M3471 2693 c7 -12 15 -20 18 -17 3 2 -3 12 -13 22 -17 16 -18 16 -5
-5z"/>
<path d="M3546 2542 c-3 -5 1 -9 9 -9 8 0 12 4 9 9 -3 4 -7 8 -9 8 -2 0 -6 -4
-9 -8z"/>
<path d="M416 2182 c-3 -5 1 -9 9 -9 8 0 12 4 9 9 -3 4 -7 8 -9 8 -2 0 -6 -4
-9 -8z"/>
<path d="M415 1860 c3 -5 8 -10 11 -10 2 0 4 5 4 10 0 6 -5 10 -11 10 -5 0 -7
-4 -4 -10z"/>
<path d="M3640 1820 c-9 -6 -10 -10 -3 -10 6 0 15 5 18 10 8 12 4 12 -15 0z"/>
<path d="M3615 1749 c-4 -6 -5 -12 -2 -15 2 -3 7 2 10 11 7 17 1 20 -8 4z"/>
<path d="M433 1743 c4 -3 1 -13 -6 -22 -11 -14 -10 -14 5 -2 16 12 16 31 1 31
-4 0 -3 -3 0 -7z"/>
<path d="M3586 1702 c-3 -5 1 -9 9 -9 8 0 12 4 9 9 -3 4 -7 8 -9 8 -2 0 -6 -4
-9 -8z"/>
<path d="M3530 1491 c0 -6 4 -13 10 -16 6 -3 7 1 4 9 -7 18 -14 21 -14 7z"/>
<path d="M513 1435 c0 -8 4 -12 9 -9 5 3 6 10 3 15 -9 13 -12 11 -12 -6z"/>
<path d="M576 1302 c-3 -5 1 -9 9 -9 8 0 12 4 9 9 -3 4 -7 8 -9 8 -2 0 -6 -4
-9 -8z"/>
<path d="M695 1100 c3 -5 8 -10 11 -10 2 0 4 5 4 10 0 6 -5 10 -11 10 -5 0 -7
-4 -4 -10z"/>
<path d="M3273 1025 c0 -8 4 -12 9 -9 5 3 6 10 3 15 -9 13 -12 11 -12 -6z"/>
<path d="M2970 736 c0 -2 8 -10 18 -17 15 -13 16 -12 3 4 -13 16 -21 21 -21
13z"/>
<path d="M2890 659 c0 -5 5 -7 10 -4 6 3 10 8 10 11 0 2 -4 4 -10 4 -5 0 -10
-5 -10 -11z"/>
<path d="M2625 520 c10 -11 20 -20 23 -20 3 0 -3 9 -13 20 -10 11 -20 20 -23
20 -3 0 3 -9 13 -20z"/>
</g>
</svg>
